<svg version="1.1" xmlns="http://www.w3.org/2000/svg" xmlns:xlink="http://www.w3.org/1999/xlink" x="0px" y="0px" viewBox="0 0 16 16" xml:space="preserve" width="16" height="16"><g class="nc-icon-wrapper" fill="#888"><path fill="#888" d="M15,4h-1.6L8.6,0.2c-0.4-0.3-0.9-0.3-1.2,0L2.6,4H1C0.4,4,0,4.4,0,5v10c0,0.6,0.4,1,1,1h14c0.6,0,1-0.4,1-1 V5C16,4.4,15.6,4,15,4z M8,2.3L10.1,4H5.9L8,2.3z M14,14l-4-5l-3,4l-2-2l-3,3V6h12V14z"></path> <path data-color="color-2" fill="#888" d="M6,8C5.4,8,5,8.4,5,9c0,0.6,0.4,1,1,1s1-0.4,1-1C7,8.4,6.6,8,6,8z"></path></g></svg>