<svg version="1.1" xmlns="http://www.w3.org/2000/svg" xmlns:xlink="http://www.w3.org/1999/xlink" x="0px" y="0px" viewBox="0 0 16 16" xml:space="preserve" width="16" height="16"><title>single 04</title><g class="nc-icon-wrapper" fill="#888"><path fill="#888" d="M12.311,9.527c-1.161-0.393-1.85-0.825-2.143-1.175C11.268,7.639,12,6.406,12,5V4c0-2.206-1.794-4-4-4 S4,1.794,4,4v1c0,1.406,0.732,2.639,1.832,3.352C5.54,8.702,4.851,9.134,3.69,9.527C2.081,10.07,1,11.57,1,13.26V16h14v-2.74 C15,11.57,13.919,10.07,12.311,9.527z M6,4c0-1.103,0.897-2,2-2s2,0.897,2,2v1c0,1.103-0.897,2-2,2S6,6.103,6,5V4z M13,14H3v-0.74 c0-0.831,0.534-1.569,1.33-1.838c1.845-0.624,3-1.436,3.452-2.422h0.436c0.452,0.986,1.607,1.798,3.453,2.422 C12.466,11.69,13,12.429,13,13.26V14z"/></g></svg>